<svg xmlns="http://www.w3.org/2000/svg" width="32" height="32" viewBox="0 0 32 32"><defs><style>.twitter-a{fill:none;}.twitter-b{fill:#092a5e;}</style></defs><rect class="twitter-a" width="32" height="32"/><g transform="translate(0.8 3.999)"><path class="twitter-b" d="M638.981,134.66c.013.259.013.531.013.8,0,8.244-6.277,17.756-17.756,17.756A17.387,17.387,0,0,1,611.7,150.4a11.346,11.346,0,0,0,1.488.091,12.544,12.544,0,0,0,7.752-2.666,6.231,6.231,0,0,1-5.824-4.335,5.959,5.959,0,0,0,1.178.116,6.222,6.222,0,0,0,1.644-.22,6.247,6.247,0,0,1-5.009-6.121v-.078a6.131,6.131,0,0,0,2.821.777,6.237,6.237,0,0,1-1.941-8.322,17.7,17.7,0,0,0,12.864,6.523,5.717,5.717,0,0,1-.168-1.424,6.244,6.244,0,0,1,10.793-4.271,12.635,12.635,0,0,0,3.96-1.514,6.237,6.237,0,0,1-2.744,3.455,12.665,12.665,0,0,0,3.585-.984A12.786,12.786,0,0,1,638.981,134.66Z" transform="translate(-611.7 -128.5)"/></g></svg>
