<svg xmlns="http://www.w3.org/2000/svg" width="32" height="32" viewBox="0 0 32 32"><defs><style>.insta-a{fill:none;}.inta-b{fill:#092a5e;}</style></defs><rect class="insta-a" width="32" height="32"/><g transform="translate(-2.079 -2.078)"><path class="insta-b" d="M18.079,6.6c3.738,0,4.181.014,5.657.082a7.749,7.749,0,0,1,2.6.482,4.636,4.636,0,0,1,2.657,2.657,7.749,7.749,0,0,1,.482,2.6c.067,1.476.082,1.919.082,5.657s-.014,4.181-.082,5.657a7.749,7.749,0,0,1-.482,2.6,4.636,4.636,0,0,1-2.657,2.657,7.749,7.749,0,0,1-2.6.482c-1.476.067-1.919.082-5.657.082s-4.181-.014-5.657-.082a7.749,7.749,0,0,1-2.6-.482,4.636,4.636,0,0,1-2.657-2.657,7.749,7.749,0,0,1-.482-2.6C6.616,22.26,6.6,21.817,6.6,18.079s.014-4.181.082-5.657a7.749,7.749,0,0,1,.482-2.6A4.636,4.636,0,0,1,9.822,7.165a7.749,7.749,0,0,1,2.6-.482C13.9,6.616,14.341,6.6,18.079,6.6m0-2.523c-3.8,0-4.279.016-5.772.084a10.276,10.276,0,0,0-3.4.651A7.159,7.159,0,0,0,4.814,8.908a10.276,10.276,0,0,0-.651,3.4c-.068,1.493-.084,1.97-.084,5.772s.016,4.279.084,5.772a10.276,10.276,0,0,0,.651,3.4,7.159,7.159,0,0,0,4.094,4.094,10.276,10.276,0,0,0,3.4.651c1.493.068,1.97.084,5.772.084s4.279-.016,5.772-.084a10.276,10.276,0,0,0,3.4-.651,7.159,7.159,0,0,0,4.094-4.094,10.276,10.276,0,0,0,.651-3.4c.068-1.493.084-1.97.084-5.772s-.016-4.279-.084-5.772a10.276,10.276,0,0,0-.651-3.4A7.159,7.159,0,0,0,27.25,4.814a10.276,10.276,0,0,0-3.4-.651c-1.493-.068-1.97-.084-5.772-.084Z"/><path class="insta-b" d="M133.824,126.635a7.189,7.189,0,1,0,7.189,7.189A7.189,7.189,0,0,0,133.824,126.635Zm0,11.856a4.667,4.667,0,1,1,4.667-4.667A4.667,4.667,0,0,1,133.824,138.491Z" transform="translate(-115.745 -115.745)"/><path class="insta-b" d="M1.68,0A1.68,1.68,0,1,1,0,1.68,1.68,1.68,0,0,1,1.68,0Z" transform="translate(23.872 8.926)"/></g></svg>
